<svg width="49" height="49" viewBox="0 0 49 49" fill="none" xmlns="http://www.w3.org/2000/svg">
<rect width="49" height="49" rx="3" fill="#DA5302"/>
<path d="M20.7542 37.828H8.49017V35H20.7542V37.828ZM30.0392 35.224C29.5352 35.224 29.0406 35.1587 28.5552 35.028C28.0699 34.916 27.6219 34.72 27.2112 34.44C26.8192 34.1413 26.4739 33.7867 26.1752 33.376C25.8952 32.9653 25.6712 32.5267 25.5032 32.06C25.3352 31.5933 25.2139 31.1173 25.1392 30.632C25.0832 30.128 25.0552 29.624 25.0552 29.12V25.424C25.0552 24.92 25.0832 24.4253 25.1392 23.94C25.2139 23.436 25.3352 22.9507 25.5032 22.484C25.6712 22.0173 25.8952 21.5787 26.1752 21.168C26.4739 20.7573 26.8192 20.412 27.2112 20.132C27.6219 19.8333 28.0699 19.628 28.5552 19.516C29.0406 19.3853 29.5352 19.32 30.0392 19.32C30.4872 19.32 30.9259 19.3667 31.3552 19.46C31.7846 19.5533 32.1859 19.7213 32.5592 19.964C32.9326 20.2067 33.2499 20.5053 33.5112 20.86C33.7912 21.196 34.0246 21.56 34.2112 21.952V14.42H37.5432V35H34.2112V32.592C34.0246 32.984 33.7912 33.3573 33.5112 33.712C33.2499 34.048 32.9326 34.3373 32.5592 34.58C32.1859 34.8227 31.7846 34.9907 31.3552 35.084C30.9259 35.1773 30.4872 35.224 30.0392 35.224ZM31.3832 32.396C31.7939 32.396 32.1952 32.3213 32.5872 32.172C32.9792 32.004 33.2966 31.7613 33.5392 31.444C33.8006 31.1267 33.9779 30.7627 34.0712 30.352C34.1646 29.9413 34.2112 29.5307 34.2112 29.12V25.424C34.2112 25.0133 34.1646 24.6027 34.0712 24.192C33.9779 23.7813 33.8006 23.4173 33.5392 23.1C33.2966 22.7827 32.9792 22.5493 32.5872 22.4C32.1952 22.232 31.7939 22.148 31.3832 22.148C30.9726 22.148 30.5619 22.2227 30.1512 22.372C29.7406 22.5213 29.3952 22.7547 29.1152 23.072C28.8352 23.3893 28.6392 23.7533 28.5272 24.164C28.4339 24.5747 28.3872 24.9947 28.3872 25.424V29.12C28.3872 29.5493 28.4339 29.9693 28.5272 30.38C28.6392 30.7907 28.8352 31.1547 29.1152 31.472C29.3952 31.7893 29.7406 32.0227 30.1512 32.172C30.5619 32.3213 30.9726 32.396 31.3832 32.396Z" fill="#0C0C0C"/>
</svg>
